# xmcd CD database file
#
# Track frame offsets:
#	150
#	14352
#	32202
#	48787
#	69632
#	91572
#	124367
#	146657
#	166390
#	186707
#	199705
#	221807
#	232837
#
# Disc length: 3552 seconds
#
# Revision: 3
# Processed by: cddbd v1.5.2PL0 Copyright (c) Steve Scherf et al.
# Submitted via: CDex 1.50
#
DISCID=ba0dde0d
DTITLE=Sister Double Happiness - Uncut
DYEAR=1993
DGENRE=Alternative
TTITLE0=San Diego
TTITLE1=Will You Come
TTITLE2=Ashes
TTITLE3=Whipping Song
TTITLE4=Doesn't Make Sense
TTITLE5=Honey Don't
TTITLE6=Keep The City Clean
TTITLE7=Do What You Gotta Do
TTITLE8=Where Do We Run
TTITLE9=No Good For You
TTITLE10=Lightnin'
TTITLE11=Louise
TTITLE12=Untitled
EXTD=YEAR: 1993
EXTT0=
EXTT1=
EXTT2=
EXTT3=
EXTT4=
EXTT5=
EXTT6=
EXTT7=
EXTT8=
EXTT9=
EXTT10=
EXTT11=
EXTT12=
PLAYORDER=
